<?xml version="1.0" encoding="utf-8"?>
<!-- Generator: Adobe Illustrator 23.0.1, SVG Export Plug-In . SVG Version: 6.00 Build 0)  -->
<svg version="1.1" id="图层_1" xmlns="http://www.w3.org/2000/svg" xmlns:xlink="http://www.w3.org/1999/xlink" x="0px" y="0px"
	 viewBox="0 0 38 54" style="enable-background:new 0 0 38 54;" xml:space="preserve">
<style type="text/css">
	.st0{fill-rule:evenodd;clip-rule:evenodd;fill:#FF6536;}
</style>
<g transform="translate(-1147.000000, -1483.000000)">
	<g id="Group-7" transform="translate(1094.000000, 283.000000)">
		<g id="行业经验" transform="translate(39.000000, 0.000000)">
			<g>
				<path id="path-1_1_" class="st0" d="M46.3,1226.6h5.4v24c0,1-0.5,1.9-1.4,2.3c-0.9,0.5-1.9,0.4-2.8-0.1l-14.7-9.7l-14.7,9.7
					c-0.8,0.5-1.9,0.6-2.8,0.1c-0.9-0.5-1.4-1.4-1.4-2.4v-45.3c0-2.9,2.4-5.3,5.4-5.3h26.9c3,0,5.4,2.4,5.4,5.3H19.4v40.3l12-7.9
					c0.9-0.6,2.1-0.6,3,0l12,7.9V1226.6z M32.8,1231.3L22.4,1221l4.8-4.7l5.7,5.6l11.1-11l4.8,4.7L32.8,1231.3z"/>
			</g>
		</g>
	</g>
</g>
</svg>
