<?xml version="1.0" encoding="utf-8"?>
<!-- Generator: Adobe Illustrator 23.0.1, SVG Export Plug-In . SVG Version: 6.00 Build 0)  -->
<svg version="1.1" id="图层_1" xmlns="http://www.w3.org/2000/svg" xmlns:xlink="http://www.w3.org/1999/xlink" x="0px" y="0px"
	 viewBox="0 0 60 44" style="enable-background:new 0 0 60 44;" xml:space="preserve">
<style type="text/css">
	.st0{fill:#FF6536;}
</style>
<title>Shape</title>
<desc>Created with Sketch.</desc>
<g id="主要页面">
	<g id="平台优势-" transform="translate(-360.000000, -2078.000000)">
		<g id="文案2" transform="translate(320.000000, 2060.000000)">
			<g id="members" transform="translate(40.000000, 18.000000)">
				<path id="Shape" class="st0" d="M36.3,28.3c4.7-2.3,7.9-7.1,7.9-12.7c0-7.8-6.4-14.2-14.3-14.2S15.6,7.8,15.6,15.7
					c0,5.6,3.3,10.4,7.9,12.7c-6,2.1-10.8,7.4-12.1,13.9c-0.1,0.7,0.3,1.6,1.1,1.7h0.3c0.7,0,1.3-0.4,1.4-1.1
					C15.7,35.4,22.3,30,29.9,30S44,35.4,45.6,42.8c0.1,0.7,0.9,1.3,1.7,1.1c0.7-0.1,1.3-0.9,1.1-1.7C47.1,35.7,42.4,30.6,36.3,28.3z
					 M18.6,15.7c0-6.3,5.1-11.4,11.4-11.4s11.4,5.1,11.4,11.4S36.3,27,30,27C23.6,27,18.6,21.9,18.6,15.7z M12.9,19.9
					c0-0.7-0.4-1.3-1.1-1.4c-4.1-1-4.9-5.3-4.9-7.7c0-4.6,3.1-8,7.3-8c0.9,0,1.4-0.6,1.4-1.4S15,0,14.2,0C8.3,0,4,4.7,4,10.8
					c0,4.1,1.4,7.1,3.9,9c-4,1.7-7,5.1-7.9,9.8c-0.1,0.7,0.3,1.6,1.1,1.7h0.3c0.7,0,1.3-0.4,1.4-1.1c1-4.7,4.1-7.8,8.8-8.5
					C12.4,21.5,13,20.8,12.9,19.9z M60,29.6c-1-4.7-3.9-8.1-7.9-9.8c2.4-1.9,3.9-5,3.9-9C56,4.7,51.6,0,45.8,0
					c-0.9,0-1.4,0.6-1.4,1.4s0.6,1.4,1.4,1.4c4.3,0,7.3,3.4,7.3,8c0,2.4-0.6,6.7-4.9,7.7c-0.7,0.1-1,0.7-1,1.4v0.1
					c-0.1,0.7,0.4,1.6,1.1,1.6c4.7,0.7,7.9,3.8,8.8,8.5c0.1,0.7,0.7,1.1,1.4,1.1H59C59.5,31.2,60.1,30.3,60,29.6z"/>
			</g>
		</g>
	</g>
</g>
</svg>
