<?xml version="1.0" encoding="utf-8"?>
<!-- Generator: Adobe Illustrator 23.0.1, SVG Export Plug-In . SVG Version: 6.00 Build 0)  -->
<svg version="1.1" id="图层_1" xmlns="http://www.w3.org/2000/svg" xmlns:xlink="http://www.w3.org/1999/xlink" x="0px" y="0px"
	 viewBox="0 0 58 50" style="enable-background:new 0 0 58 50;" xml:space="preserve">
<style type="text/css">
	.st0{fill-rule:evenodd;clip-rule:evenodd;fill:#FF6536;}
</style>
<title>Combined Shape</title>
<desc>Created with Sketch.</desc>
<g id="主要页面">
	<g transform="translate(-534.000000, -1488.000000)">
		<path id="Combined-Shape" class="st0" d="M586.2,1493.6c3.2,0,5.8,2.5,5.8,5.6v33.3c0,3.1-2.6,5.6-5.8,5.6h-46.4
			c-3.2,0-5.8-2.5-5.8-5.6v-33.3c0-3.1,2.6-5.6,5.8-5.6h15c1.2-3.2,4.4-5.6,8.2-5.6s7,2.3,8.2,5.6H586.2z M539.8,1532.4h46.4l0-33.3
			h-15c-1.2,3.2-4.4,5.6-8.2,5.6s-7-2.3-8.2-5.6h-15V1532.4z M542.7,1526.9c0-5.1,3.4-8.3,8.7-8.3c5.3,0,8.7,3.2,8.7,8.3H542.7z
			 M557.2,1510.2c0,3.1-2.6,5.6-5.8,5.6s-5.8-2.5-5.8-5.6c0-3.1,2.6-5.6,5.8-5.6S557.2,1507.2,557.2,1510.2z M583.3,1515.8h-17.4
			v-5.6h17.4V1515.8z M583.3,1526.9h-17.4v-5.6h17.4V1526.9z M563,1493.6c-1.6,0-2.9,1.2-2.9,2.8c0,1.5,1.3,2.8,2.9,2.8
			s2.9-1.2,2.9-2.8C565.9,1494.8,564.6,1493.6,563,1493.6z"/>
	</g>
</g>
</svg>
