<?xml version="1.0" encoding="utf-8"?>
<!-- Generator: Adobe Illustrator 23.0.1, SVG Export Plug-In . SVG Version: 6.00 Build 0)  -->
<svg version="1.1" id="图层_1" xmlns="http://www.w3.org/2000/svg" xmlns:xlink="http://www.w3.org/1999/xlink" x="0px" y="0px"
	 viewBox="0 0 60 51" style="enable-background:new 0 0 60 51;" xml:space="preserve">
<style type="text/css">
	.st0{fill-rule:evenodd;clip-rule:evenodd;fill:#FF6536;}
</style>
<title>Fill 632</title>
<desc>Created with Sketch.</desc>
<g id="主要页面">
	<g transform="translate(-844.000000, -1484.000000)">
		<g id="Fill-632">
			<path class="st0" d="M851.2,1529.6l1-2.7h43.7l1,2.7H851.2z M859,1502.8h6v18.8h-6V1502.8z M853,1496.6l21-7l21,7v0.8h-42V1496.6
				z M877,1521.6h-6v-18.8h6V1521.6z M889,1521.6h-6v-18.8h6V1521.6z M903.8,1531.5l-3-8.1c-0.4-1.1-1.6-1.8-2.8-1.8h-3v-18.8h3
				c1.7,0,3-1.2,3-2.7v-5.4c0-1.1-0.8-2.1-1.9-2.5l-24-8.1c-0.7-0.2-1.4-0.2-2.1,0l-24,8.1c-1.2,0.4-1.9,1.4-1.9,2.5v5.4
				c0,1.5,1.3,2.7,3,2.7h3v18.8h-3c-1.3,0-2.4,0.7-2.8,1.8l-3,8.1c-0.3,0.8-0.2,1.7,0.4,2.4c0.6,0.7,1.5,1.1,2.4,1.1h54
				c1,0,1.9-0.4,2.4-1.1C904,1533.2,904.2,1532.3,903.8,1531.5L903.8,1531.5z"/>
		</g>
	</g>
</g>
</svg>
