<?xml version="1.0" encoding="utf-8"?>
<!-- Generator: Adobe Illustrator 23.0.1, SVG Export Plug-In . SVG Version: 6.00 Build 0)  -->
<svg version="1.1" id="图层_1" xmlns="http://www.w3.org/2000/svg" xmlns:xlink="http://www.w3.org/1999/xlink" x="0px" y="0px"
	 viewBox="0 0 52 61" style="enable-background:new 0 0 52 61;" xml:space="preserve">
<style type="text/css">
	.st0{opacity:0;}
	.st1{fill-rule:evenodd;clip-rule:evenodd;fill:#FF6536;}
	.st2{fill:#FF6536;}
</style>
<title>认证</title>
<desc>Created with Sketch.</desc>
<g id="主要页面">
	<g transform="translate(-238.000000, -1479.000000)">
		<g id="认证" transform="translate(233.000000, 1478.000000)">
			<g id="Rectangle" class="st0">
				<g>
					<rect y="0" class="st1" width="66" height="66"/>
				</g>
			</g>
			<g id="Shape">
				<g>
					<path class="st2" d="M6,35.6l0-20.3c0-2.6,1.9-4.7,4.5-5c3.5-0.4,6.6-1.1,9.3-2.2c5.9-2.4,9.7-5.1,9.7-5.1l0.3-0.2
						c0.7-0.5,1.6-0.5,2.3,0l0.3,0.2c0,0,3.8,2.7,9.7,5.1c2.7,1.1,5.8,1.8,9.3,2.2v0c2.5,0.3,4.5,2.4,4.5,5l0,20.3
						c0,12.5-16.3,25.8-25,25.8C22.3,61.4,6,48.2,6,35.6z M11,35.6c0,9.7,14.2,20.8,19.9,20.8c5.8,0,19.9-11.1,19.9-20.8l0-18.5
						c0-1-0.7-1.8-1.7-2c-3.6-0.6-6.6-1.4-9-2.4c-2.6-1-5.3-2.4-8.3-4.1l0,0c-0.6-0.4-1.4-0.4-2,0c-3,1.7-5.7,3.1-8.3,4.1
						c-2.4,1-5.4,1.8-9,2.4l0,0c-1,0.2-1.7,1-1.7,2V35.6z M28.7,45L18,36l3.3-3.8l6.8,5.7L41,23.2l3.8,3.3L28.7,45z"/>
					<path class="st2" d="M31,61.9c-8.9,0-25.5-13.5-25.5-26.3V15.3c0-2.8,2.1-5.2,4.9-5.5c3.4-0.4,6.5-1.1,9.2-2.2
						c5.7-2.3,9.4-4.9,9.6-5.1l0.3-0.2c0.9-0.6,2-0.6,2.9,0l0.3,0.2c0,0,3.7,2.7,9.6,5.1c2.7,1.1,5.8,1.8,9.2,2.2
						c2.8,0.3,4.9,2.6,4.9,5.5l0,20.3c0,5.8-3.4,12.3-9.4,18C41.8,58.7,35.4,61.9,31,61.9z M31,3c-0.3,0-0.6,0.1-0.9,0.3l-0.3,0.2
						c-0.2,0.1-4,2.8-9.8,5.2c-2.7,1.1-5.9,1.9-9.5,2.2c-2.3,0.2-4,2.2-4,4.5v20.3c0,12.3,15.9,25.3,24.5,25.3
						c4.2,0,10.3-3.2,15.4-8.1c5.8-5.5,9.1-11.7,9.1-17.2l0-20.3c0-2.3-1.7-4.2-4-4.5c-3.5-0.4-6.7-1.1-9.5-2.2
						c-6-2.4-9.8-5.1-9.8-5.2l-0.3-0.2C31.6,3.1,31.3,3,31,3z M31,56.9c-5.9,0-20.5-11.4-20.5-21.3V17.1c0-1.2,0.9-2.3,2.1-2.5
						c3.5-0.6,6.5-1.4,8.9-2.3c2.5-1,5.3-2.4,8.2-4.1c0.8-0.4,1.7-0.4,2.5,0c2.9,1.7,5.7,3.1,8.2,4.1c2.4,1,5.4,1.7,8.9,2.3
						c1.2,0.2,2.1,1.2,2.1,2.5v18.5C51.4,45.6,36.9,56.9,31,56.9z M31,8.9c-0.3,0-0.5,0.1-0.8,0.2c-3,1.7-5.8,3.1-8.3,4.2
						c-2.4,1-5.5,1.8-9.1,2.4c-0.7,0.1-1.3,0.7-1.3,1.5v18.5c0,9.5,13.8,20.3,19.5,20.3s19.5-10.8,19.5-20.3V17.1
						c0-0.7-0.5-1.4-1.3-1.5c-3.6-0.6-6.7-1.4-9.1-2.4c-2.6-1-5.4-2.4-8.3-4.2C31.5,9,31.3,8.9,31,8.9z M28.7,45.7l-11.4-9.6
						l3.9-4.6l6.8,5.8L41,22.5l4.6,3.9L28.7,45.7z M18.8,36l9.9,8.3l15.5-17.8l-3.1-2.6L28.2,38.7l-6.8-5.7L18.8,36z"/>
				</g>
			</g>
		</g>
	</g>
</g>
</svg>
